<?xml version="1.0" encoding="UTF-8"?>
<svg id="Layer_1" data-name="Layer 1" xmlns="http://www.w3.org/2000/svg" width="200" height="200.13" viewBox="0 0 200 200.13">
    <defs>
        <style>
            .cls-1 {
            fill: #99c2ea;
            }
        </style>
    </defs>
    <polygon id="b" points="60.16 .13 200 .13 200 200.13 0 200.13 0 .13 30.3 0 30 170.13 170 170.13 170 30.13 60.16 30.13 60.16 .13"/>
    <g>
        <path class="cls-1" d="M73.4,127.44c-.92-.92-1.38-2.07-1.38-3.43v-9.63c0-3.05-.88-5.82-2.65-8.31s-4.09-4.25-6.98-5.3v-1.69c2.89-1.04,5.22-2.81,6.98-5.3s2.65-5.26,2.65-8.31v-9.63c0-1.36.46-2.51,1.38-3.43s2.07-1.38,3.43-1.38h14.45v-9.63h-14.45c-4.01,0-7.43,1.4-10.23,4.21s-4.21,6.22-4.21,10.23v9.63c0,1.36-.46,2.51-1.38,3.43s-2.07,1.38-3.43,1.38h-4.82v19.27h4.82c1.36,0,2.51.46,3.43,1.38s1.38,2.07,1.38,3.43v9.63c0,4.01,1.4,7.43,4.21,10.23s6.22,4.21,10.23,4.21h14.45v-9.63h-14.45c-1.36,0-2.51-.46-3.43-1.38Z"/>
        <path class="cls-1" d="M144.26,90.29c-1.36,0-2.51-.46-3.43-1.38s-1.38-2.07-1.38-3.43v-9.63c0-4.01-1.4-7.43-4.21-10.23s-6.22-4.21-10.23-4.21h-14.45v9.63h14.45c1.36,0,2.51.46,3.43,1.38s1.38,2.07,1.38,3.43v9.63c0,3.05.88,5.82,2.65,8.31s4.09,4.25,6.98,5.3v1.69c-2.89,1.04-5.22,2.81-6.98,5.3s-2.65,5.26-2.65,8.31v9.63c0,1.36-.46,2.51-1.38,3.43s-2.07,1.38-3.43,1.38h-14.45v9.63h14.45c4.01,0,7.43-1.4,10.23-4.21s4.21-6.22,4.21-10.23v-9.63c0-1.36.46-2.51,1.38-3.43s2.07-1.38,3.43-1.38h4.82v-19.27h-4.82Z"/>
        <path class="cls-1" d="M120.74,116.94l-13.61-13.61c.86-1.08,1.55-2.32,2.05-3.73.5-1.4.76-2.9.76-4.48,0-3.92-1.36-7.24-4.08-9.96-2.72-2.72-6.04-4.08-9.96-4.08s-7.24,1.36-9.96,4.08-4.08,6.04-4.08,9.96,1.36,7.24,4.08,9.96c2.72,2.72,6.04,4.08,9.96,4.08,1.58,0,3.08-.25,4.48-.76,1.4-.5,2.65-1.19,3.73-2.05l13.61,13.61,3.02-3.02ZM102.78,102.01c-1.89,1.89-4.18,2.83-6.88,2.83s-4.99-.94-6.88-2.83c-1.89-1.89-2.83-4.18-2.83-6.88s.94-4.99,2.83-6.88c1.89-1.89,4.18-2.83,6.88-2.83s4.99.94,6.88,2.83c1.89,1.89,2.83,4.18,2.83,6.88s-.94,4.99-2.83,6.88Z"/>
    </g>
</svg>
