<svg class="addon-icon" xmlns="http://www.w3.org/2000/svg" width="23.96" height="19.17" viewBox="0 0 23.96 19.17">
  <path class="addon-icon__path" d="M5.14,16.43c-.23-.23-.34-.51-.34-.85v-2.4c0-.76-.22-1.45-.66-2.07s-1.02-1.06-1.74-1.32v-.42c.72-.26,1.3-.7,1.74-1.32s.66-1.31.66-2.07v-2.4c0-.34.11-.62.34-.85s.51-.34.85-.34h3.59V0h-3.59c-1,0-1.85.35-2.55,1.05s-1.05,1.55-1.05,2.55v2.4c0,.34-.11.62-.34.85s-.51.34-.85.34H0v4.79h1.2c.34,0,.62.11.85.34s.34.51.34.85v2.4c0,1,.35,1.85,1.05,2.55s1.55,1.05,2.55,1.05h3.59v-2.4h-3.59c-.34,0-.62-.11-.85-.34Z"/>
  <path class="addon-icon__path" d="M22.76,7.19c-.34,0-.62-.11-.85-.34s-.34-.51-.34-.85v-2.4c0-1-.35-1.85-1.05-2.55s-1.55-1.05-2.55-1.05h-3.59v2.4h3.59c.34,0,.62.11.85.34s.34.51.34.85v2.4c0,.76.22,1.45.66,2.07s1.02,1.06,1.74,1.32v.42c-.72.26-1.3.7-1.74,1.32s-.66,1.31-.66,2.07v2.4c0,.34-.11.62-.34.85s-.51.34-.85.34h-3.59v2.4h3.59c1,0,1.85-.35,2.55-1.05s1.05-1.55,1.05-2.55v-2.4c0-.34.11-.62.34-.85s.51-.34.85-.34h1.2v-4.79h-1.2Z"/>
  <path class="addon-icon__path" d="M16.91,13.81l-3.38-3.38c.21-.27.38-.58.51-.93.13-.35.19-.72.19-1.11,0-.98-.34-1.8-1.01-2.48-.68-.68-1.5-1.01-2.48-1.01s-1.8.34-2.48,1.01-1.01,1.5-1.01,2.48.34,1.8,1.01,2.48,1.5,1.01,2.48,1.01c.39,0,.77-.06,1.11-.19.35-.13.66-.3.93-.51l3.38,3.38.75-.75ZM12.44,10.1c-.47.47-1.04.71-1.71.71s-1.24-.24-1.71-.71c-.47-.47-.71-1.04-.71-1.71s.24-1.24.71-1.71c.47-.47,1.04-.71,1.71-.71s1.24.24,1.71.71c.47.47.71,1.04.71,1.71s-.24,1.24-.71,1.71Z"/>
</svg>
